<svg width="45" height="45" fill="none" xmlns="http://www.w3.org/2000/svg"><path d="M31.491 13.822a2.045 2.045 0 010 2.893l-6.098 6.098 5.472 5.472a2.045 2.045 0 11-2.892 2.893L22.5 25.706l-5.473 5.472a2.045 2.045 0 11-2.892-2.893l5.472-5.472-6.098-6.098a2.045 2.045 0 112.893-2.893L22.5 19.92l6.098-6.098a2.045 2.045 0 012.893 0z" fill="#fff"/><path fill-rule="evenodd" clip-rule="evenodd" d="M6.136 0A6.136 6.136 0 000 6.136v32.728A6.136 6.136 0 006.136 45h32.728A6.136 6.136 0 0045 38.864V6.136A6.136 6.136 0 0038.864 0H6.136zm32.728 4.09H6.136c-1.13 0-2.045.917-2.045 2.046v32.728c0 1.13.916 2.045 2.045 2.045h32.728c1.13 0 2.045-.916 2.045-2.045V6.136c0-1.13-.916-2.045-2.045-2.045z" fill="#fff"/></svg>